<svg xmlns="http://www.w3.org/2000/svg" viewBox="0 0 350 120">
  <style>
    text {
      fill: #1b1817;
      font-family: "Courier New", Courier, monospace;
    }
    @media (prefers-color-scheme: dark) {
      text {
        fill: #eeeeee;
      }
    }
    #description {
      max-width: 80%;
      white-space: wrap;
    }
    path {
      fill: #1b1817;
    }
    @media (prefers-color-scheme: dark) {
      path {
        fill: #eeeeee;
      }
    }
    #background {
      fill: #ffffff;
      width: 100%;
      height: 100%;
    }
    @media (prefers-color-scheme: dark) {
      #background {
        fill: #333333;
      }
    }
    #repo-icon {
      transform: translate(5px, 5px);
    }
    #language {
      transform: translate(5px, 90px);
    }
    #language path {
      fill-rule: evenodd;
      stroke: none;
    }
    #language text {
      font-size: 0.7em;
      font-weight: medium;
      dominant-baseline: middle;
      text-anchor: start;
    }
    #signature {
      transform: translate(250px, 100px) scale(0.5);
    }
    #signature path {
      fill-rule: evenodd;
      stroke: none;
    }
    #signature text {
      font-size: 1.5em;
      font-weight: medium;
      dominant-baseline: middle;
      text-anchor: start;
    }
  </style>
  <rect id="background"></rect>
  <path
    id="repo-icon"
    fill-rule="evenodd"
    d="M2 2.5A2.5 2.5 0 014.5 0h8.75a.75.75 0 01.75.75v12.5a.75.75 0 01-.75.75h-2.5a.75.75 0 110-1.5h1.75v-2h-8a1 1 0 00-.714 1.7.75.75 0 01-1.072 1.05A2.495 2.495 0 012 11.5v-9zm10.5-1V9h-8c-.356 0-.694.074-1 .208V2.5a1 1 0 011-1h8zM5 12.25v3.25a.25.25 0 00.4.2l1.45-1.087a.25.25 0 01.3 0L8.6 15.7a.25.25 0 00.4-.2v-3.25a.25.25 0 00-.25-.25h-3.5a.25.25 0 00-.25.25z"
  ></path>
  <text x="25" y="17">Jamyth/shorten-url</text>
  <text id="description" font-size="8" x="5" y="33">A simple shorten url service that will cache your</text>
  <text id="description" font-size="8" x="5" y="43">link for 7 days</text>
  <g id="language">
    <path
      d="M1.125 0C.502 0 0 .502 0 1.125v21.75C0 23.498.502 24 1.125 24h21.75c.623 0 1.125-.502 1.125-1.125V1.125C24 .502 23.498 0 22.875 0zm17.363 9.75c.612 0 1.154.037 1.627.111a6.38 6.38 0 0 1 1.306.34v2.458a3.95 3.95 0 0 0-.643-.361 5.093 5.093 0 0 0-.717-.26 5.453 5.453 0 0 0-1.426-.2c-.3 0-.573.028-.819.086a2.1 2.1 0 0 0-.623.242c-.17.104-.3.229-.393.374a.888.888 0 0 0-.14.49c0 .196.053.373.156.529.104.156.252.304.443.444s.423.276.696.41c.273.135.582.274.926.416.47.197.892.407 1.266.628.374.222.695.473.963.753.268.279.472.598.614.957.142.359.214.776.214 1.253 0 .657-.125 1.21-.373 1.656a3.033 3.033 0 0 1-1.012 1.085 4.38 4.38 0 0 1-1.487.596c-.566.12-1.163.18-1.79.18a9.916 9.916 0 0 1-1.84-.164 5.544 5.544 0 0 1-1.512-.493v-2.63a5.033 5.033 0 0 0 3.237 1.2c.333 0 .624-.03.872-.09.249-.06.456-.144.623-.25.166-.108.29-.234.373-.38a1.023 1.023 0 0 0-.074-1.089 2.12 2.12 0 0 0-.537-.5 5.597 5.597 0 0 0-.807-.444 27.72 27.72 0 0 0-1.007-.436c-.918-.383-1.602-.852-2.053-1.405-.45-.553-.676-1.222-.676-2.005 0-.614.123-1.141.369-1.582.246-.441.58-.804 1.004-1.089a4.494 4.494 0 0 1 1.47-.629 7.536 7.536 0 0 1 1.77-.201zm-15.113.188h9.563v2.166H9.506v9.646H6.789v-9.646H3.375z"
    ></path>
    <text font-size="8" x="30" y="15">TypeScript</text>
  </g>
  <g id="signature">
    <path
      d="m16 0c-8.995 0-16.288 7.293-16.288 16.29c0 7.197 4.667 13.302 11.14 15.457c.815.149 1.112-.354 1.112-.786c0-.386-.014-1.411-.022-2.77c-4.531.984-5.487-2.184-5.487-2.184c-.741-1.881-1.809-2.382-1.809-2.382c-1.479-1.011.112-.991.112-.991c1.635.116 2.495 1.679 2.495 1.679c1.453 2.489 3.813 1.77 4.741 1.354c.148-1.053.568-1.771 1.034-2.178c-3.617-.411-7.42-1.809-7.42-8.051c0-1.778.635-3.232 1.677-4.371c-.168-.412-.727-2.068.159-4.311c0 0 1.368-.438 4.48 1.67c1.299-.361 2.693-.542 4.078-.548c1.383.006 2.777.187 4.078.548c3.11-2.108 4.475-1.67 4.475-1.67c.889 2.243.33 3.899.162 4.311c1.044 1.139 1.675 2.593 1.675 4.371c0 6.258-3.809 7.635-7.438 8.038c.585.503 1.106 1.497 1.106 3.017c0 2.177-.02 3.934-.02 4.468c0 .436.293.943 1.12.784c6.468-2.159 11.131-8.26 11.131-15.455c0-8.997-7.294-16.29-16.291-16.29"
    ></path>
    <text x="40" y="20">Jamyth Luk</text>
  </g>
</svg>
